<?xml version="1.0" encoding="UTF-8"?>
<svg width="26px" height="26px" viewBox="0 0 26 26" version="1.1" xmlns="http://www.w3.org/2000/svg" xmlns:xlink="http://www.w3.org/1999/xlink">
    <!-- Generator: Sketch 52.6 (67491) - http://www.bohemiancoding.com/sketch -->
    <title>Icon - Twitter</title>
    <desc>Created with Sketch.</desc>
    <defs>
        <polygon id="path-1" points="7.3964497e-05 0.0164349112 24.9835059 0.0164349112 24.9835059 25 7.3964497e-05 25"></polygon>
    </defs>
    <g id="Icon---Twitter" stroke="none" stroke-width="1" fill="none" fill-rule="evenodd">
        <g transform="translate(0.500000, 0.500000)">
            <path d="M18.3875592,8.54322485 C17.9183284,8.82133136 17.3993935,9.02266272 16.8455473,9.13139053 C16.4036834,8.6597929 15.7721746,8.36482249 15.0736538,8.36482249 C13.7335651,8.36482249 12.6465828,9.45269231 12.6465828,10.7930769 C12.6465828,10.9837574 12.6672929,11.1682249 12.7090089,11.3458876 C10.6915533,11.2442604 8.90323964,10.2788757 7.70501479,8.80846154 C7.49599112,9.16866864 7.37631657,9.5858284 7.37631657,10.0307988 C7.37631657,10.8717751 7.80501479,11.615858 8.45649408,12.0513609 C8.05871302,12.0390828 7.68400888,11.9293195 7.35634615,11.7481065 L7.35634615,11.7778402 C7.35634615,12.9547633 8.19303254,13.9362722 9.30442308,14.1587574 C9.10057692,14.215858 8.88622781,14.2441124 8.66433432,14.2441124 C8.5081213,14.2441124 8.35545858,14.2299112 8.20797337,14.2015089 C8.51640533,15.1654142 9.41300296,15.8680769 10.475429,15.8870118 C9.64451183,16.5381953 8.59747041,16.926213 7.46048817,16.926213 C7.26448225,16.926213 7.07069527,16.9152663 6.88119822,16.892929 C7.95560651,17.5813905 9.23178994,17.9836095 10.6025,17.9836095 C15.0686243,17.9836095 17.5098964,14.2843491 17.5098964,11.0745858 C17.5098964,10.9694083 17.5079734,10.8642308 17.5033876,10.7605325 C17.9779438,10.417929 18.390074,9.99071006 18.7146302,9.50357988 C18.279571,9.69707101 17.8112278,9.82724852 17.3202515,9.88627219 C17.8220266,9.5858284 18.2067899,9.10949704 18.3875592,8.54322485" id="Fill-1" fill="#582C83"></path>
            <g id="Group-5" transform="translate(0.000000, 0.131509)">
                <mask id="mask-2" fill="white">
                    <use xlink:href="#path-1"></use>
                </mask>
                <g id="Clip-4"></g>
                <path d="M19.9781808,19.9944974 C17.9807031,21.9919632 15.324949,23.0920941 12.5,23.0920941 C9.67505087,23.0920941 7.01944479,21.9919632 5.02196717,19.9944974 C3.02448955,17.9970316 1.92435218,15.3412933 1.92435218,12.5163609 C1.92435218,9.69142855 3.02448955,7.03583819 5.02196717,5.0383724 C7.01944479,3.04090661 9.67505087,1.94077575 12.5,1.94077575 C15.324949,1.94077575 17.9807031,3.04090661 19.9781808,5.0383724 C21.9756584,7.03583819 23.0757957,9.69142855 23.0757957,12.5163609 C23.0757957,15.3412933 21.9756584,17.9970316 19.9781808,19.9944974 M21.3388458,3.6777154 C18.8981751,1.23676306 15.6991615,0.0164349112 12.5,0.0164349112 C9.3009864,0.0164349112 6.10197286,1.23676306 3.66130212,3.6777154 C-1.22033542,8.559176 -1.22033542,16.4736938 3.66130212,21.3551544 C6.10197286,23.7961068 9.3009864,25.0164349 12.5,25.0164349 C15.6991615,25.0164349 18.8981751,23.7961068 21.3388458,21.3551544 C26.2204833,16.4736938 26.2204833,8.559176 21.3388458,3.6777154" id="Fill-3" fill="#582C83" mask="url(#mask-2)"></path>
            </g>
        </g>
    </g>
</svg>