<?xml version="1.0" encoding="UTF-8"?>
<svg width="26px" height="26px" viewBox="0 0 26 26" version="1.1" xmlns="http://www.w3.org/2000/svg" xmlns:xlink="http://www.w3.org/1999/xlink">
    <!-- Generator: Sketch 53 (72520) - https://sketchapp.com -->
    <title>Icon - LinkedIn</title>
    <desc>Created with Sketch.</desc>
    <g id="Icon---LinkedIn" stroke="none" stroke-width="1" fill="none" fill-rule="evenodd">
        <g id="functional-icon_linkedin" fill="#582C83">
            <path d="M8.90147059,7.27102941 C8.18470588,7.27102941 7.71529412,7.73602941 7.71529412,8.35058824 C7.71529412,8.95235294 8.17102941,9.42705882 8.87367647,9.42705882 L8.88764706,9.42705882 C9.61764706,9.42705882 10.0725,8.95058824 10.0725,8.34867647 C10.0583824,7.73514706 9.61764706,7.27102941 8.90147059,7.27102941" id="Fill-1"></path>
            <path d="M15.2138235,10.145 C14.1008824,10.145 13.4041176,10.7536765 13.2751471,11.1802941 L13.2751471,10.2051471 L11.0936765,10.2051471 C11.1220588,10.7227941 11.0936765,16.4207353 11.0936765,16.4207353 L13.2751471,16.4207353 L13.2751471,13.0572059 C13.2751471,12.8697059 13.2666176,12.6830882 13.3226471,12.5492647 C13.4727941,12.1751471 13.7947059,11.7877941 14.3741176,11.7877941 C15.1317647,11.7877941 15.4757353,12.3622059 15.4757353,13.2042647 L15.4757353,16.4207353 L17.6777941,16.4207353 L17.6777941,12.9644118 C17.6777941,11.0389706 16.5935294,10.145 15.2138235,10.145" id="Fill-2"></path>
            <polygon id="Fill-3" points="7.96647059 16.4207353 9.90852941 16.4207353 9.90852941 10.2051471 7.96647059 10.2051471"></polygon>
            <path d="M19.9292647,19.9292647 C17.9448529,21.9136765 15.3063235,23.0064706 12.5,23.0064706 C9.69367647,23.0064706 7.05514706,21.9136765 5.07073529,19.9292647 C3.08632353,17.9447059 1.99352941,15.3064706 1.99352941,12.5 C1.99352941,9.69352941 3.08632353,7.05529412 5.07073529,5.07073529 C7.05514706,3.08632353 9.69367647,1.99352941 12.5,1.99352941 C15.3063235,1.99352941 17.9448529,3.08632353 19.9292647,5.07073529 C21.9136765,7.05529412 23.0064706,9.69352941 23.0064706,12.5 C23.0064706,15.3064706 21.9136765,17.9447059 19.9292647,19.9292647 Z M21.2810294,3.71897059 C18.8563235,1.29411765 15.6780882,0.0817647059 12.5,0.0817647059 C9.32191176,0.0817647059 6.14367647,1.29411765 3.71897059,3.71897059 C-1.13073529,8.56867647 -1.13073529,16.4313235 3.71897059,21.2810294 C6.14367647,23.7058824 9.32191176,24.9182353 12.5,24.9182353 C15.6780882,24.9182353 18.8563235,23.7058824 21.2810294,21.2810294 C26.1307353,16.4313235 26.1307353,8.56867647 21.2810294,3.71897059 L21.2810294,3.71897059 Z" id="Fill-4"></path>
        </g>
    </g>
</svg>
