<?xml version="1.0" encoding="UTF-8"?>
<svg width="26px" height="26px" viewBox="0 0 26 26" version="1.1" xmlns="http://www.w3.org/2000/svg" xmlns:xlink="http://www.w3.org/1999/xlink">
    <!-- Generator: Sketch 52.6 (67491) - http://www.bohemiancoding.com/sketch -->
    <title>Icon - FB</title>
    <desc>Created with Sketch.</desc>
    <defs>
        <polygon id="path-1" points="7.3964497e-05 0.0164349112 24.9835059 0.0164349112 24.9835059 25 7.3964497e-05 25"></polygon>
    </defs>
    <g id="Icon---FB" stroke="none" stroke-width="1" fill="none" fill-rule="evenodd">
        <g transform="translate(0.500000, 0.500000)">
            <path d="M14.1418195,8.38402367 C14.6437426,8.38402367 15.1819083,8.5397929 15.1819083,8.5397929 L15.5045414,6.62662722 C15.5045414,6.62662722 14.8187426,6.3943787 13.1898964,6.3943787 C12.1904882,6.3943787 11.6092751,6.775 11.1859024,7.33505917 C10.7839793,7.86346154 10.770074,8.71686391 10.770074,9.27026627 L10.770074,10.5252959 L9.4789497,10.5252959 L9.4789497,12.393787 L10.770074,12.393787 L10.770074,18.8850592 L13.1898964,18.8850592 L13.1898964,12.393787 L15.1052811,12.393787 L15.2489201,10.5252959 L13.1898964,10.5252959 L13.1898964,9.06597633 C13.1898964,8.56420118 13.6396006,8.38402367 14.1418195,8.38402367" id="Fill-1" fill="#582C83"></path>
            <g id="Group-5" transform="translate(0.000000, 0.131509)">
                <mask id="mask-2" fill="white">
                    <use xlink:href="#path-1"></use>
                </mask>
                <g id="Clip-4"></g>
                <path d="M19.9649408,19.9813757 C17.968787,21.9775296 15.3147929,23.0769379 12.491716,23.0769379 C9.66863905,23.0769379 7.0147929,21.9775296 5.01863905,19.9813757 C3.02248521,17.9852219 1.92307692,15.3312278 1.92307692,12.5081509 C1.92307692,9.68507396 3.02248521,7.03122781 5.01863905,5.03507396 C7.0147929,3.03892012 9.66863905,1.93951183 12.491716,1.93951183 C15.3147929,1.93951183 17.968787,3.03892012 19.9649408,5.03507396 C21.9610947,7.03122781 23.060503,9.68507396 23.060503,12.5081509 C23.060503,15.3312278 21.9610947,17.9852219 19.9649408,19.9813757 M21.3247041,3.67531065 C18.8856509,1.23596154 15.6887574,0.0164349112 12.491716,0.0164349112 C9.29482249,0.0164349112 6.09792899,1.23596154 3.65887574,3.67531065 C-1.21952663,8.55356509 -1.21952663,16.4628846 3.65887574,21.3411391 C6.09792899,23.7804882 9.29482249,25.0000148 12.491716,25.0000148 C15.6887574,25.0000148 18.8856509,23.7804882 21.3247041,21.3411391 C26.2031065,16.4628846 26.2031065,8.55356509 21.3247041,3.67531065" id="Fill-3" fill="#582C83" mask="url(#mask-2)"></path>
            </g>
        </g>
    </g>
</svg>